<svg width="24" height="24" viewBox="0 0 24 24" fill="none" xmlns="http://www.w3.org/2000/svg">
<g clip-path="url(#clip0_31_17)">
<path d="M16.2855 11.1429C16.2855 12.2795 15.834 13.3696 15.0303 14.1733C14.2266 14.977 13.1365 15.4286 11.9998 15.4286C10.8632 15.4286 9.7731 14.977 8.96937 14.1733C8.16564 13.3696 7.71411 12.2795 7.71411 11.1429V5.14285C7.71411 4.00621 8.16564 2.91612 8.96937 2.1124C9.7731 1.30867 10.8632 0.85714 11.9998 0.85714C13.1365 0.85714 14.2266 1.30867 15.0303 2.1124C15.834 2.91612 16.2855 4.00621 16.2855 5.14285V11.1429Z" stroke="#65A30D" stroke-width="2" stroke-linecap="round" stroke-linejoin="round"/>
<path d="M20.5713 12C20.5736 13.0137 20.3756 14.0178 19.9887 14.9548C19.6019 15.8918 19.0337 16.7431 18.3169 17.4599C17.6001 18.1767 16.7488 18.7448 15.8119 19.1317C14.8749 19.5186 13.8707 19.7165 12.8571 19.7143H11.1428C10.1291 19.7165 9.12493 19.5186 8.18797 19.1317C7.25101 18.7448 6.3997 18.1767 5.68291 17.4599C4.96612 16.7431 4.39798 15.8918 4.0111 14.9548C3.62422 14.0178 3.42623 13.0137 3.42849 12V12" stroke="#65A30D" stroke-width="2" stroke-linecap="round" stroke-linejoin="round"/>
<path d="M12 19.7143V23.1429" stroke="#65A30D" stroke-width="2" stroke-linecap="round" stroke-linejoin="round"/>
</g>
<defs>
<clipPath id="clip0_31_17">
<rect width="24" height="24" fill="white"/>
</clipPath>
</defs>
</svg>
